# xmcd CD database file
#
# Track frame offsets:
#	150
#	31932
#	55550
#	86927
#	110232
#	136198
#	159259
#	178180
#	206383
#
# Disc length: 3284 seconds
#
# Revision: 1
# Processed by: cddbd v1.5.1PL0 Copyright (c) Steve Scherf et al.
# Submitted via: CDex 1.51
#
DISCID=730cd209
DTITLE=Salvador Candel - Agua
DYEAR=2000
DGENRE=New Age
TTITLE0=Tormenta en Babasamba
TTITLE1=El mar de los sentimientos
TTITLE2=Amazonia
TTITLE3=El lenguaje de las nubes
TTITLE4=La casa del agua
TTITLE5=Bahia
TTITLE6=Arroyo de Luna
TTITLE7=Conrtinas de agua
TTITLE8=La gruta encantada
EXTD=YEAR: 2000
EXTT0=
EXTT1=
EXTT2=
EXTT3=
EXTT4=
EXTT5=
EXTT6=
EXTT7=
EXTT8=
PLAYORDER=
